<mxfile host="65bd71144e">
    <diagram id="IrYM9CMqrQINCdisrvc-" name="Page-1">
        <mxGraphModel dx="1256" dy="866" grid="1" gridSize="10" guides="1" tooltips="1" connect="1" arrows="1" fold="1" page="1" pageScale="1" pageWidth="850" pageHeight="1100" math="0" shadow="0">
            <root>
                <mxCell id="0"/>
                <mxCell id="1" parent="0"/>
                <mxCell id="4" value="" style="rounded=0;whiteSpace=wrap;html=1;" vertex="1" parent="1">
                    <mxGeometry x="70" y="60" width="680" height="1330" as="geometry"/>
                </mxCell>
                <mxCell id="UuW12oKez12iBIwaAhRY-137" style="edgeStyle=none;html=1;exitX=1;exitY=0.3333333333333333;exitDx=0;exitDy=0;exitPerimeter=0;entryX=0;entryY=0.5;entryDx=0;entryDy=0;endArrow=none;endFill=0;" edge="1" parent="1" target="23">
                    <mxGeometry relative="1" as="geometry">
                        <mxPoint x="50" y="210" as="sourcePoint"/>
                    </mxGeometry>
                </mxCell>
                <mxCell id="UuW12oKez12iBIwaAhRY-138" style="edgeStyle=none;html=1;exitX=1;exitY=0.3333333333333333;exitDx=0;exitDy=0;exitPerimeter=0;entryX=0;entryY=0.5;entryDx=0;entryDy=0;endArrow=none;endFill=0;" edge="1" parent="1" target="UuW12oKez12iBIwaAhRY-98">
                    <mxGeometry relative="1" as="geometry">
                        <mxPoint x="50" y="210" as="sourcePoint"/>
                    </mxGeometry>
                </mxCell>
                <mxCell id="23" value="&lt;font style=&quot;color: light-dark(rgb(0, 0, 0), rgb(0, 0, 0));&quot;&gt;Consulter une recette&lt;/font&gt;" style="ellipse;whiteSpace=wrap;html=1;fillColor=light-dark(#FFFFFF,#F2F261);" vertex="1" parent="1">
                    <mxGeometry x="150" y="160" width="140" height="40" as="geometry"/>
                </mxCell>
                <mxCell id="UuW12oKez12iBIwaAhRY-24" value="" style="rounded=0;whiteSpace=wrap;html=1;" vertex="1" parent="1">
                    <mxGeometry x="940" y="50" width="1190" height="1000" as="geometry"/>
                </mxCell>
                <mxCell id="UuW12oKez12iBIwaAhRY-25" value="&lt;font style=&quot;color: light-dark(rgb(0, 0, 0), rgb(0, 0, 0));&quot;&gt;modifier le profile&lt;/font&gt;" style="ellipse;whiteSpace=wrap;html=1;fillColor=light-dark(#FFFFFF,#F2F261);" vertex="1" parent="1">
                    <mxGeometry x="1010" y="150" width="140" height="40" as="geometry"/>
                </mxCell>
                <mxCell id="UuW12oKez12iBIwaAhRY-61" style="edgeStyle=none;html=1;exitX=1;exitY=0.3333333333333333;exitDx=0;exitDy=0;exitPerimeter=0;entryX=0;entryY=0.5;entryDx=0;entryDy=0;" edge="1" parent="1" source="UuW12oKez12iBIwaAhRY-26" target="UuW12oKez12iBIwaAhRY-25">
                    <mxGeometry relative="1" as="geometry"/>
                </mxCell>
                <mxCell id="UuW12oKez12iBIwaAhRY-63" style="edgeStyle=none;html=1;exitX=1;exitY=0.3333333333333333;exitDx=0;exitDy=0;exitPerimeter=0;entryX=0;entryY=0.5;entryDx=0;entryDy=0;" edge="1" parent="1" source="UuW12oKez12iBIwaAhRY-26" target="UuW12oKez12iBIwaAhRY-33">
                    <mxGeometry relative="1" as="geometry"/>
                </mxCell>
                <mxCell id="UuW12oKez12iBIwaAhRY-64" style="edgeStyle=none;html=1;exitX=1;exitY=0.3333333333333333;exitDx=0;exitDy=0;exitPerimeter=0;entryX=0;entryY=0.5;entryDx=0;entryDy=0;" edge="1" parent="1" source="UuW12oKez12iBIwaAhRY-26" target="UuW12oKez12iBIwaAhRY-34">
                    <mxGeometry relative="1" as="geometry"/>
                </mxCell>
                <mxCell id="UuW12oKez12iBIwaAhRY-65" style="edgeStyle=none;html=1;exitX=1;exitY=0.3333333333333333;exitDx=0;exitDy=0;exitPerimeter=0;entryX=0;entryY=0.5;entryDx=0;entryDy=0;" edge="1" parent="1" source="UuW12oKez12iBIwaAhRY-26" target="UuW12oKez12iBIwaAhRY-43">
                    <mxGeometry relative="1" as="geometry"/>
                </mxCell>
                <mxCell id="UuW12oKez12iBIwaAhRY-26" value="Utilisateur&lt;div&gt;&lt;br&gt;&lt;/div&gt;" style="shape=umlActor;verticalLabelPosition=bottom;verticalAlign=top;html=1;outlineConnect=0;" vertex="1" parent="1">
                    <mxGeometry x="880" y="430" width="30" height="60" as="geometry"/>
                </mxCell>
                <mxCell id="UuW12oKez12iBIwaAhRY-47" value="" style="group" vertex="1" connectable="0" parent="1">
                    <mxGeometry x="990" y="900" width="310" height="90" as="geometry"/>
                </mxCell>
                <mxCell id="UuW12oKez12iBIwaAhRY-43" value="&lt;font style=&quot;color: light-dark(rgb(0, 0, 0), rgb(0, 0, 0));&quot;&gt;interagir avec profile&amp;nbsp;&lt;/font&gt;" style="ellipse;whiteSpace=wrap;html=1;fillColor=light-dark(#FFFFFF,#F2F261);" vertex="1" parent="UuW12oKez12iBIwaAhRY-47">
                    <mxGeometry y="25" width="140" height="50" as="geometry"/>
                </mxCell>
                <mxCell id="UuW12oKez12iBIwaAhRY-68" style="edgeStyle=none;html=1;" edge="1" parent="UuW12oKez12iBIwaAhRY-47" source="UuW12oKez12iBIwaAhRY-45">
                    <mxGeometry relative="1" as="geometry">
                        <mxPoint x="140" y="50" as="targetPoint"/>
                    </mxGeometry>
                </mxCell>
                <mxCell id="UuW12oKez12iBIwaAhRY-45" value="&lt;font style=&quot;color: light-dark(rgb(0, 0, 0), rgb(0, 0, 0));&quot;&gt;Se désabonner d’un utilisateur&lt;/font&gt;" style="ellipse;whiteSpace=wrap;html=1;fillColor=light-dark(#FFFFFF,#F2F261);" vertex="1" parent="UuW12oKez12iBIwaAhRY-47">
                    <mxGeometry x="170" y="50" width="140" height="40" as="geometry"/>
                </mxCell>
                <mxCell id="UuW12oKez12iBIwaAhRY-67" style="edgeStyle=none;html=1;entryX=1;entryY=0.5;entryDx=0;entryDy=0;" edge="1" parent="UuW12oKez12iBIwaAhRY-47" source="UuW12oKez12iBIwaAhRY-46" target="UuW12oKez12iBIwaAhRY-43">
                    <mxGeometry relative="1" as="geometry"/>
                </mxCell>
                <mxCell id="UuW12oKez12iBIwaAhRY-46" value="&lt;font style=&quot;color: light-dark(rgb(0, 0, 0), rgb(0, 0, 0));&quot;&gt;Suivre un utilisateur&lt;/font&gt;" style="ellipse;whiteSpace=wrap;html=1;fillColor=light-dark(#FFFFFF,#F2F261);" vertex="1" parent="UuW12oKez12iBIwaAhRY-47">
                    <mxGeometry x="170" width="140" height="40" as="geometry"/>
                </mxCell>
                <mxCell id="UuW12oKez12iBIwaAhRY-48" value="" style="group" vertex="1" connectable="0" parent="1">
                    <mxGeometry x="1010" y="230" width="320" height="140" as="geometry"/>
                </mxCell>
                <mxCell id="UuW12oKez12iBIwaAhRY-27" value="&lt;font style=&quot;color: light-dark(rgb(0, 0, 0), rgb(0, 0, 0));&quot;&gt;gérer les recettes&lt;/font&gt;" style="ellipse;whiteSpace=wrap;html=1;fillColor=light-dark(#FFFFFF,#F2F261);" vertex="1" parent="UuW12oKez12iBIwaAhRY-48">
                    <mxGeometry y="50" width="140" height="40" as="geometry"/>
                </mxCell>
                <mxCell id="UuW12oKez12iBIwaAhRY-39" style="edgeStyle=none;html=1;entryX=1;entryY=0.5;entryDx=0;entryDy=0;endArrow=block;endFill=0;" edge="1" parent="UuW12oKez12iBIwaAhRY-48" source="UuW12oKez12iBIwaAhRY-28" target="UuW12oKez12iBIwaAhRY-27">
                    <mxGeometry relative="1" as="geometry"/>
                </mxCell>
                <mxCell id="UuW12oKez12iBIwaAhRY-28" value="&lt;font style=&quot;color: light-dark(rgb(0, 0, 0), rgb(0, 0, 0));&quot;&gt;Modifier une recette&lt;/font&gt;" style="ellipse;whiteSpace=wrap;html=1;fillColor=light-dark(#FFFFFF,#F2F261);" vertex="1" parent="UuW12oKez12iBIwaAhRY-48">
                    <mxGeometry x="180" y="50" width="140" height="40" as="geometry"/>
                </mxCell>
                <mxCell id="UuW12oKez12iBIwaAhRY-38" style="edgeStyle=none;html=1;entryX=1;entryY=0.5;entryDx=0;entryDy=0;endArrow=block;endFill=0;" edge="1" parent="UuW12oKez12iBIwaAhRY-48" source="UuW12oKez12iBIwaAhRY-29" target="UuW12oKez12iBIwaAhRY-27">
                    <mxGeometry relative="1" as="geometry"/>
                </mxCell>
                <mxCell id="UuW12oKez12iBIwaAhRY-29" value="&lt;font style=&quot;color: light-dark(rgb(0, 0, 0), rgb(0, 0, 0));&quot;&gt;Ajouter une recette&lt;/font&gt;" style="ellipse;whiteSpace=wrap;html=1;fillColor=light-dark(#FFFFFF,#F2F261);" vertex="1" parent="UuW12oKez12iBIwaAhRY-48">
                    <mxGeometry x="180" width="140" height="40" as="geometry"/>
                </mxCell>
                <mxCell id="UuW12oKez12iBIwaAhRY-30" value="&lt;font style=&quot;color: light-dark(rgb(0, 0, 0), rgb(0, 0, 0));&quot;&gt;Supprimer une recette&lt;/font&gt;" style="ellipse;whiteSpace=wrap;html=1;fillColor=light-dark(#FFFFFF,#F2F261);" vertex="1" parent="UuW12oKez12iBIwaAhRY-48">
                    <mxGeometry x="180" y="100" width="140" height="40" as="geometry"/>
                </mxCell>
                <mxCell id="UuW12oKez12iBIwaAhRY-40" style="edgeStyle=none;html=1;entryX=0.949;entryY=0.322;entryDx=0;entryDy=0;entryPerimeter=0;endArrow=block;endFill=0;" edge="1" parent="UuW12oKez12iBIwaAhRY-48" source="UuW12oKez12iBIwaAhRY-30" target="UuW12oKez12iBIwaAhRY-27">
                    <mxGeometry relative="1" as="geometry"/>
                </mxCell>
                <mxCell id="UuW12oKez12iBIwaAhRY-60" value="" style="group" vertex="1" connectable="0" parent="1">
                    <mxGeometry x="995" y="410" width="325" height="140" as="geometry"/>
                </mxCell>
                <mxCell id="UuW12oKez12iBIwaAhRY-33" value="&lt;font style=&quot;color: light-dark(rgb(0, 0, 0), rgb(0, 0, 0));&quot;&gt;Rechercher des recettes&lt;/font&gt;" style="ellipse;whiteSpace=wrap;html=1;fillColor=light-dark(#FFFFFF,#F2F261);" vertex="1" parent="UuW12oKez12iBIwaAhRY-60">
                    <mxGeometry y="50" width="140" height="40" as="geometry"/>
                </mxCell>
                <mxCell id="UuW12oKez12iBIwaAhRY-78" style="edgeStyle=none;html=1;entryX=1;entryY=0.5;entryDx=0;entryDy=0;endArrow=block;endFill=0;" edge="1" parent="UuW12oKez12iBIwaAhRY-60" source="UuW12oKez12iBIwaAhRY-54" target="UuW12oKez12iBIwaAhRY-33">
                    <mxGeometry relative="1" as="geometry"/>
                </mxCell>
                <mxCell id="UuW12oKez12iBIwaAhRY-54" value="&lt;font style=&quot;color: light-dark(rgb(0, 0, 0), rgb(0, 0, 0));&quot;&gt;rechercher par categorie&lt;/font&gt;" style="ellipse;whiteSpace=wrap;html=1;fillColor=light-dark(#FFFFFF,#F2F261);" vertex="1" parent="UuW12oKez12iBIwaAhRY-60">
                    <mxGeometry x="185" y="50" width="140" height="40" as="geometry"/>
                </mxCell>
                <mxCell id="UuW12oKez12iBIwaAhRY-77" style="edgeStyle=none;html=1;entryX=1;entryY=0.5;entryDx=0;entryDy=0;endArrow=block;endFill=0;exitX=0;exitY=0.5;exitDx=0;exitDy=0;" edge="1" parent="UuW12oKez12iBIwaAhRY-60" source="UuW12oKez12iBIwaAhRY-55" target="UuW12oKez12iBIwaAhRY-33">
                    <mxGeometry relative="1" as="geometry"/>
                </mxCell>
                <mxCell id="UuW12oKez12iBIwaAhRY-55" value="&lt;font style=&quot;color: light-dark(rgb(0, 0, 0), rgb(0, 0, 0));&quot;&gt;rechercher par mot clé&lt;/font&gt;" style="ellipse;whiteSpace=wrap;html=1;fillColor=light-dark(#FFFFFF,#F2F261);" vertex="1" parent="UuW12oKez12iBIwaAhRY-60">
                    <mxGeometry x="185" width="140" height="40" as="geometry"/>
                </mxCell>
                <mxCell id="UuW12oKez12iBIwaAhRY-79" style="edgeStyle=none;html=1;endArrow=block;endFill=0;exitX=0;exitY=0.5;exitDx=0;exitDy=0;" edge="1" parent="UuW12oKez12iBIwaAhRY-60" source="UuW12oKez12iBIwaAhRY-58">
                    <mxGeometry relative="1" as="geometry">
                        <mxPoint x="135" y="70" as="targetPoint"/>
                    </mxGeometry>
                </mxCell>
                <mxCell id="UuW12oKez12iBIwaAhRY-58" value="&lt;font style=&quot;color: light-dark(rgb(0, 0, 0), rgb(0, 0, 0));&quot;&gt;rechercher par ingrédients&amp;nbsp;&lt;span style=&quot;white-space: pre;&quot;&gt;&#x9;&lt;/span&gt;&lt;/font&gt;" style="ellipse;whiteSpace=wrap;html=1;fillColor=light-dark(#FFFFFF,#F2F261);" vertex="1" parent="UuW12oKez12iBIwaAhRY-60">
                    <mxGeometry x="185" y="100" width="140" height="40" as="geometry"/>
                </mxCell>
                <mxCell id="UuW12oKez12iBIwaAhRY-62" style="edgeStyle=none;html=1;exitX=1;exitY=0.3333333333333333;exitDx=0;exitDy=0;exitPerimeter=0;entryX=0.052;entryY=0.378;entryDx=0;entryDy=0;entryPerimeter=0;" edge="1" parent="1" source="UuW12oKez12iBIwaAhRY-26" target="UuW12oKez12iBIwaAhRY-27">
                    <mxGeometry relative="1" as="geometry"/>
                </mxCell>
                <mxCell id="UuW12oKez12iBIwaAhRY-97" value="" style="group" vertex="1" connectable="0" parent="1">
                    <mxGeometry x="140" y="240" width="325" height="140" as="geometry"/>
                </mxCell>
                <mxCell id="UuW12oKez12iBIwaAhRY-98" value="&lt;font style=&quot;color: light-dark(rgb(0, 0, 0), rgb(0, 0, 0));&quot;&gt;Rechercher des recettes&lt;/font&gt;" style="ellipse;whiteSpace=wrap;html=1;fillColor=light-dark(#FFFFFF,#F2F261);" vertex="1" parent="UuW12oKez12iBIwaAhRY-97">
                    <mxGeometry y="50" width="140" height="40" as="geometry"/>
                </mxCell>
                <mxCell id="UuW12oKez12iBIwaAhRY-99" style="edgeStyle=none;html=1;entryX=1;entryY=0.5;entryDx=0;entryDy=0;endArrow=block;endFill=0;" edge="1" parent="UuW12oKez12iBIwaAhRY-97" source="UuW12oKez12iBIwaAhRY-100" target="UuW12oKez12iBIwaAhRY-98">
                    <mxGeometry relative="1" as="geometry"/>
                </mxCell>
                <mxCell id="UuW12oKez12iBIwaAhRY-100" value="&lt;font style=&quot;color: light-dark(rgb(0, 0, 0), rgb(0, 0, 0));&quot;&gt;rechercher par categorie&lt;/font&gt;" style="ellipse;whiteSpace=wrap;html=1;fillColor=light-dark(#FFFFFF,#F2F261);" vertex="1" parent="UuW12oKez12iBIwaAhRY-97">
                    <mxGeometry x="185" y="50" width="140" height="40" as="geometry"/>
                </mxCell>
                <mxCell id="UuW12oKez12iBIwaAhRY-101" style="edgeStyle=none;html=1;entryX=1;entryY=0.5;entryDx=0;entryDy=0;endArrow=block;endFill=0;exitX=0;exitY=0.5;exitDx=0;exitDy=0;" edge="1" parent="UuW12oKez12iBIwaAhRY-97" source="UuW12oKez12iBIwaAhRY-102" target="UuW12oKez12iBIwaAhRY-98">
                    <mxGeometry relative="1" as="geometry"/>
                </mxCell>
                <mxCell id="UuW12oKez12iBIwaAhRY-102" value="&lt;font style=&quot;color: light-dark(rgb(0, 0, 0), rgb(0, 0, 0));&quot;&gt;rechercher par mot clé&lt;/font&gt;" style="ellipse;whiteSpace=wrap;html=1;fillColor=light-dark(#FFFFFF,#F2F261);" vertex="1" parent="UuW12oKez12iBIwaAhRY-97">
                    <mxGeometry x="185" width="140" height="40" as="geometry"/>
                </mxCell>
                <mxCell id="UuW12oKez12iBIwaAhRY-103" style="edgeStyle=none;html=1;endArrow=block;endFill=0;exitX=0;exitY=0.5;exitDx=0;exitDy=0;" edge="1" parent="UuW12oKez12iBIwaAhRY-97" source="UuW12oKez12iBIwaAhRY-104">
                    <mxGeometry relative="1" as="geometry">
                        <mxPoint x="135" y="70" as="targetPoint"/>
                    </mxGeometry>
                </mxCell>
                <mxCell id="UuW12oKez12iBIwaAhRY-104" value="&lt;font style=&quot;color: light-dark(rgb(0, 0, 0), rgb(0, 0, 0));&quot;&gt;rechercher par ingrédients&amp;nbsp;&lt;span style=&quot;white-space: pre;&quot;&gt;&#x9;&lt;/span&gt;&lt;/font&gt;" style="ellipse;whiteSpace=wrap;html=1;fillColor=light-dark(#FFFFFF,#F2F261);" vertex="1" parent="UuW12oKez12iBIwaAhRY-97">
                    <mxGeometry x="185" y="100" width="140" height="40" as="geometry"/>
                </mxCell>
                <mxCell id="UuW12oKez12iBIwaAhRY-118" value="" style="group" vertex="1" connectable="0" parent="1">
                    <mxGeometry x="995" y="580" width="330" height="290" as="geometry"/>
                </mxCell>
                <mxCell id="UuW12oKez12iBIwaAhRY-112" value="" style="group" vertex="1" connectable="0" parent="UuW12oKez12iBIwaAhRY-118">
                    <mxGeometry width="330" height="240" as="geometry"/>
                </mxCell>
                <mxCell id="UuW12oKez12iBIwaAhRY-88" value="" style="group" vertex="1" connectable="0" parent="UuW12oKez12iBIwaAhRY-112">
                    <mxGeometry width="330" height="190" as="geometry"/>
                </mxCell>
                <mxCell id="UuW12oKez12iBIwaAhRY-34" value="&lt;font style=&quot;color: light-dark(rgb(0, 0, 0), rgb(0, 0, 0));&quot;&gt;Consulter une recette&lt;/font&gt;" style="ellipse;whiteSpace=wrap;html=1;fillColor=light-dark(#FFFFFF,#F2F261);" vertex="1" parent="UuW12oKez12iBIwaAhRY-88">
                    <mxGeometry y="75" width="140" height="40" as="geometry"/>
                </mxCell>
                <mxCell id="UuW12oKez12iBIwaAhRY-35" value="&lt;font style=&quot;color: light-dark(rgb(0, 0, 0), rgb(0, 0, 0));&quot;&gt;Aimer la recette&lt;/font&gt;" style="ellipse;whiteSpace=wrap;html=1;fillColor=light-dark(#FFFFFF,#F2F261);" vertex="1" parent="UuW12oKez12iBIwaAhRY-88">
                    <mxGeometry x="190" y="150" width="140" height="40" as="geometry"/>
                </mxCell>
                <mxCell id="UuW12oKez12iBIwaAhRY-36" value="&lt;font style=&quot;color: light-dark(rgb(0, 0, 0), rgb(0, 0, 0));&quot;&gt;Commenter sur la recette&lt;/font&gt;" style="ellipse;whiteSpace=wrap;html=1;fillColor=light-dark(#FFFFFF,#F2F261);" vertex="1" parent="UuW12oKez12iBIwaAhRY-88">
                    <mxGeometry x="190" width="140" height="40" as="geometry"/>
                </mxCell>
                <mxCell id="UuW12oKez12iBIwaAhRY-37" value="&lt;font style=&quot;color: light-dark(rgb(0, 0, 0), rgb(0, 0, 0));&quot;&gt;Ne pas aimer larecette&lt;/font&gt;" style="ellipse;whiteSpace=wrap;html=1;fillColor=light-dark(#FFFFFF,#F2F261);" vertex="1" parent="UuW12oKez12iBIwaAhRY-88">
                    <mxGeometry x="190" y="100" width="140" height="40" as="geometry"/>
                </mxCell>
                <mxCell id="UuW12oKez12iBIwaAhRY-49" value="&lt;font style=&quot;color: light-dark(rgb(0, 0, 0), rgb(0, 0, 0));&quot;&gt;Réagir à un commentaire&lt;/font&gt;" style="ellipse;whiteSpace=wrap;html=1;fillColor=light-dark(#FFFFFF,#F2F261);" vertex="1" parent="UuW12oKez12iBIwaAhRY-88">
                    <mxGeometry x="190" y="50" width="140" height="40" as="geometry"/>
                </mxCell>
                <mxCell id="UuW12oKez12iBIwaAhRY-82" value="&amp;lt;&amp;lt;extend&amp;gt;&amp;gt;" style="html=1;verticalAlign=bottom;labelBackgroundColor=none;endArrow=open;endFill=0;dashed=1;exitX=0;exitY=0.5;exitDx=0;exitDy=0;entryX=1;entryY=0.5;entryDx=0;entryDy=0;" edge="1" parent="UuW12oKez12iBIwaAhRY-88" source="UuW12oKez12iBIwaAhRY-36" target="UuW12oKez12iBIwaAhRY-34">
                    <mxGeometry width="160" relative="1" as="geometry">
                        <mxPoint x="60" y="115" as="sourcePoint"/>
                        <mxPoint x="220" y="115" as="targetPoint"/>
                        <Array as="points">
                            <mxPoint x="140" y="95"/>
                        </Array>
                    </mxGeometry>
                </mxCell>
                <mxCell id="UuW12oKez12iBIwaAhRY-85" value="&amp;lt;&amp;lt;extend&amp;gt;&amp;gt;" style="html=1;verticalAlign=bottom;labelBackgroundColor=none;endArrow=open;endFill=0;dashed=1;exitX=0;exitY=0.5;exitDx=0;exitDy=0;entryX=1;entryY=0.5;entryDx=0;entryDy=0;" edge="1" parent="UuW12oKez12iBIwaAhRY-88" source="UuW12oKez12iBIwaAhRY-49" target="UuW12oKez12iBIwaAhRY-34">
                    <mxGeometry width="160" relative="1" as="geometry">
                        <mxPoint x="170" y="105" as="sourcePoint"/>
                        <mxPoint x="120" y="155" as="targetPoint"/>
                        <Array as="points"/>
                    </mxGeometry>
                </mxCell>
                <mxCell id="UuW12oKez12iBIwaAhRY-86" value="&amp;lt;&amp;lt;extend&amp;gt;&amp;gt;" style="html=1;verticalAlign=bottom;labelBackgroundColor=none;endArrow=open;endFill=0;dashed=1;exitX=0;exitY=0.5;exitDx=0;exitDy=0;entryX=1;entryY=0.5;entryDx=0;entryDy=0;" edge="1" parent="UuW12oKez12iBIwaAhRY-88" source="UuW12oKez12iBIwaAhRY-37" target="UuW12oKez12iBIwaAhRY-34">
                    <mxGeometry width="160" relative="1" as="geometry">
                        <mxPoint x="200" y="105" as="sourcePoint"/>
                        <mxPoint x="150" y="105" as="targetPoint"/>
                        <Array as="points"/>
                    </mxGeometry>
                </mxCell>
                <mxCell id="UuW12oKez12iBIwaAhRY-87" value="&amp;lt;&amp;lt;extend&amp;gt;&amp;gt;" style="html=1;verticalAlign=bottom;labelBackgroundColor=none;endArrow=open;endFill=0;dashed=1;exitX=0;exitY=0.5;exitDx=0;exitDy=0;entryX=1;entryY=0.5;entryDx=0;entryDy=0;" edge="1" parent="UuW12oKez12iBIwaAhRY-88" source="UuW12oKez12iBIwaAhRY-35" target="UuW12oKez12iBIwaAhRY-34">
                    <mxGeometry width="160" relative="1" as="geometry">
                        <mxPoint x="200" y="155" as="sourcePoint"/>
                        <mxPoint x="150" y="105" as="targetPoint"/>
                        <Array as="points"/>
                    </mxGeometry>
                </mxCell>
                <mxCell id="UuW12oKez12iBIwaAhRY-105" value="&lt;font style=&quot;color: light-dark(rgb(0, 0, 0), rgb(0, 0, 0));&quot;&gt;Marquer comme favori&lt;/font&gt;" style="ellipse;whiteSpace=wrap;html=1;fillColor=light-dark(#FFFFFF,#F2F261);" vertex="1" parent="UuW12oKez12iBIwaAhRY-112">
                    <mxGeometry x="190" y="200" width="140" height="40" as="geometry"/>
                </mxCell>
                <mxCell id="UuW12oKez12iBIwaAhRY-111" value="&amp;lt;&amp;lt;extend&amp;gt;&amp;gt;" style="html=1;verticalAlign=bottom;labelBackgroundColor=none;endArrow=open;endFill=0;dashed=1;exitX=0;exitY=0.5;exitDx=0;exitDy=0;entryX=0.962;entryY=0.6;entryDx=0;entryDy=0;entryPerimeter=0;" edge="1" parent="UuW12oKez12iBIwaAhRY-112" source="UuW12oKez12iBIwaAhRY-105" target="UuW12oKez12iBIwaAhRY-34">
                    <mxGeometry width="160" relative="1" as="geometry">
                        <mxPoint x="200" y="180" as="sourcePoint"/>
                        <mxPoint x="150" y="105" as="targetPoint"/>
                        <Array as="points"/>
                    </mxGeometry>
                </mxCell>
                <mxCell id="UuW12oKez12iBIwaAhRY-113" value="&lt;font style=&quot;color: light-dark(rgb(0, 0, 0), rgb(0, 0, 0));&quot;&gt;Acheter la recette.&lt;/font&gt;" style="ellipse;whiteSpace=wrap;html=1;fillColor=light-dark(#FFFFFF,#F2F261);" vertex="1" parent="UuW12oKez12iBIwaAhRY-118">
                    <mxGeometry x="190" y="250" width="140" height="40" as="geometry"/>
                </mxCell>
                <mxCell id="UuW12oKez12iBIwaAhRY-116" value="&amp;lt;&amp;lt;extend&amp;gt;&amp;gt;" style="html=1;verticalAlign=bottom;labelBackgroundColor=none;endArrow=open;endFill=0;dashed=1;exitX=0;exitY=0.5;exitDx=0;exitDy=0;entryX=0.918;entryY=0.778;entryDx=0;entryDy=0;entryPerimeter=0;" edge="1" parent="UuW12oKez12iBIwaAhRY-118" source="UuW12oKez12iBIwaAhRY-113" target="UuW12oKez12iBIwaAhRY-34">
                    <mxGeometry width="160" relative="1" as="geometry">
                        <mxPoint x="200" y="230" as="sourcePoint"/>
                        <mxPoint x="145" y="109" as="targetPoint"/>
                        <Array as="points"/>
                    </mxGeometry>
                </mxCell>
                <mxCell id="UuW12oKez12iBIwaAhRY-126" style="edgeStyle=none;html=1;entryX=1;entryY=0.5;entryDx=0;entryDy=0;endArrow=none;endFill=0;" edge="1" parent="1" source="UuW12oKez12iBIwaAhRY-120" target="UuW12oKez12iBIwaAhRY-122">
                    <mxGeometry relative="1" as="geometry"/>
                </mxCell>
                <mxCell id="UuW12oKez12iBIwaAhRY-127" style="edgeStyle=none;html=1;entryX=1;entryY=0.5;entryDx=0;entryDy=0;endArrow=none;endFill=0;" edge="1" parent="1" source="UuW12oKez12iBIwaAhRY-120" target="UuW12oKez12iBIwaAhRY-124">
                    <mxGeometry relative="1" as="geometry"/>
                </mxCell>
                <mxCell id="UuW12oKez12iBIwaAhRY-129" style="edgeStyle=none;html=1;entryX=1;entryY=0.5;entryDx=0;entryDy=0;endArrow=none;endFill=0;" edge="1" parent="1" source="UuW12oKez12iBIwaAhRY-120" target="UuW12oKez12iBIwaAhRY-123">
                    <mxGeometry relative="1" as="geometry"/>
                </mxCell>
                <mxCell id="UuW12oKez12iBIwaAhRY-120" value="&lt;font style=&quot;&quot;&gt;&lt;font style=&quot;color: light-dark(rgb(0, 0, 0), rgb(0, 0, 0));&quot;&gt;Système de &lt;/font&gt;&lt;font style=&quot;color: light-dark(rgb(0, 0, 0), rgb(0, 0, 0));&quot;&gt;paiement&lt;/font&gt;&lt;font style=&quot;color: light-dark(rgb(0, 0, 0), rgb(0, 0, 0));&quot;&gt;.&lt;/font&gt;&lt;/font&gt;" style="rounded=0;whiteSpace=wrap;html=1;fillColor=light-dark(#FFFFFF,#F2F261);" vertex="1" parent="1">
                    <mxGeometry x="1970" y="470" width="120" height="60" as="geometry"/>
                </mxCell>
                <mxCell id="UuW12oKez12iBIwaAhRY-122" value="&lt;font style=&quot;color: light-dark(rgb(0, 0, 0), rgb(0, 0, 0));&quot;&gt;générer factures&lt;/font&gt;" style="ellipse;whiteSpace=wrap;html=1;fillColor=light-dark(#FFFFFF,#F2F261);" vertex="1" parent="1">
                    <mxGeometry x="1770" y="480" width="140" height="40" as="geometry"/>
                </mxCell>
                <mxCell id="UuW12oKez12iBIwaAhRY-123" value="&lt;font style=&quot;color: light-dark(rgb(0, 0, 0), rgb(0, 0, 0));&quot;&gt;Accepter les paiements.&lt;/font&gt;" style="ellipse;whiteSpace=wrap;html=1;fillColor=light-dark(#FFFFFF,#F2F261);" vertex="1" parent="1">
                    <mxGeometry x="1770" y="430" width="140" height="40" as="geometry"/>
                </mxCell>
                <mxCell id="UuW12oKez12iBIwaAhRY-124" value="&lt;font style=&quot;color: light-dark(rgb(0, 0, 0), rgb(0, 0, 0));&quot;&gt;Sécuriser les paiements.&lt;/font&gt;" style="ellipse;whiteSpace=wrap;html=1;fillColor=light-dark(#FFFFFF,#F2F261);" vertex="1" parent="1">
                    <mxGeometry x="1770" y="530" width="140" height="40" as="geometry"/>
                </mxCell>
                <mxCell id="UuW12oKez12iBIwaAhRY-130" value="&lt;font style=&quot;color: light-dark(rgb(0, 0, 0), rgb(0, 0, 0));&quot;&gt;s&#39;authentifier&lt;/font&gt;" style="ellipse;whiteSpace=wrap;html=1;fillColor=light-dark(#FFFFFF,#F2F261);" vertex="1" parent="1">
                    <mxGeometry x="1510" y="500" width="140" height="40" as="geometry"/>
                </mxCell>
                <mxCell id="UuW12oKez12iBIwaAhRY-131" value="&amp;lt;&amp;lt;include&amp;gt;&amp;gt;" style="html=1;verticalAlign=bottom;labelBackgroundColor=none;endArrow=open;endFill=0;dashed=1;exitX=0.5;exitY=1;exitDx=0;exitDy=0;edgeStyle=orthogonalEdgeStyle;entryX=0.5;entryY=0;entryDx=0;entryDy=0;" edge="1" parent="1" source="UuW12oKez12iBIwaAhRY-27" target="UuW12oKez12iBIwaAhRY-130">
                    <mxGeometry width="160" relative="1" as="geometry">
                        <mxPoint x="1440" y="530" as="sourcePoint"/>
                        <mxPoint x="1600" y="530" as="targetPoint"/>
                        <Array as="points">
                            <mxPoint x="1080" y="390"/>
                            <mxPoint x="1580" y="390"/>
                        </Array>
                    </mxGeometry>
                </mxCell>
                <mxCell id="UuW12oKez12iBIwaAhRY-132" value="&amp;lt;&amp;lt;include&amp;gt;&amp;gt;" style="html=1;verticalAlign=bottom;labelBackgroundColor=none;endArrow=open;endFill=0;dashed=1;exitX=1;exitY=0.5;exitDx=0;exitDy=0;edgeStyle=orthogonalEdgeStyle;entryX=0.717;entryY=0.008;entryDx=0;entryDy=0;entryPerimeter=0;" edge="1" parent="1" source="UuW12oKez12iBIwaAhRY-25" target="UuW12oKez12iBIwaAhRY-130">
                    <mxGeometry width="160" relative="1" as="geometry">
                        <mxPoint x="1090" y="330" as="sourcePoint"/>
                        <mxPoint x="1610" y="540" as="targetPoint"/>
                        <Array as="points">
                            <mxPoint x="1611" y="170"/>
                        </Array>
                    </mxGeometry>
                </mxCell>
                <mxCell id="UuW12oKez12iBIwaAhRY-133" value="&amp;lt;&amp;lt;include&amp;gt;&amp;gt;" style="html=1;verticalAlign=bottom;labelBackgroundColor=none;endArrow=open;endFill=0;dashed=1;edgeStyle=orthogonalEdgeStyle;entryX=0.5;entryY=1;entryDx=0;entryDy=0;exitX=0.5;exitY=1;exitDx=0;exitDy=0;" edge="1" parent="1" source="UuW12oKez12iBIwaAhRY-33" target="UuW12oKez12iBIwaAhRY-130">
                    <mxGeometry width="160" relative="1" as="geometry">
                        <mxPoint x="1090" y="330" as="sourcePoint"/>
                        <mxPoint x="1590" y="510" as="targetPoint"/>
                        <Array as="points">
                            <mxPoint x="1065" y="560"/>
                            <mxPoint x="1580" y="560"/>
                        </Array>
                    </mxGeometry>
                </mxCell>
                <mxCell id="UuW12oKez12iBIwaAhRY-134" value="&amp;lt;&amp;lt;include&amp;gt;&amp;gt;" style="html=1;verticalAlign=bottom;labelBackgroundColor=none;endArrow=open;endFill=0;dashed=1;edgeStyle=orthogonalEdgeStyle;entryX=0.714;entryY=1;entryDx=0;entryDy=0;exitX=0.5;exitY=0;exitDx=0;exitDy=0;entryPerimeter=0;" edge="1" parent="1" target="UuW12oKez12iBIwaAhRY-130">
                    <mxGeometry width="160" relative="1" as="geometry">
                        <mxPoint x="1080" y="659.24" as="sourcePoint"/>
                        <mxPoint x="1629.58" y="540.0000000000001" as="targetPoint"/>
                        <Array as="points">
                            <mxPoint x="1080" y="574"/>
                            <mxPoint x="1610" y="574"/>
                        </Array>
                    </mxGeometry>
                </mxCell>
                <mxCell id="UuW12oKez12iBIwaAhRY-135" value="&amp;lt;&amp;lt;include&amp;gt;&amp;gt;" style="html=1;verticalAlign=bottom;labelBackgroundColor=none;endArrow=open;endFill=0;dashed=1;edgeStyle=orthogonalEdgeStyle;entryX=1;entryY=1;entryDx=0;entryDy=0;exitX=0.5;exitY=0;exitDx=0;exitDy=0;" edge="1" parent="1" source="UuW12oKez12iBIwaAhRY-43" target="UuW12oKez12iBIwaAhRY-130">
                    <mxGeometry width="160" relative="1" as="geometry">
                        <mxPoint x="1090" y="669.24" as="sourcePoint"/>
                        <mxPoint x="1620" y="550" as="targetPoint"/>
                        <Array as="points">
                            <mxPoint x="1060" y="890"/>
                            <mxPoint x="1629" y="890"/>
                        </Array>
                    </mxGeometry>
                </mxCell>
                <mxCell id="UuW12oKez12iBIwaAhRY-136" value="&lt;font style=&quot;font-size: 36px;&quot;&gt;Plateforme de partage de recettes&lt;/font&gt;" style="text;html=1;align=center;verticalAlign=middle;whiteSpace=wrap;rounded=0;" vertex="1" parent="1">
                    <mxGeometry x="1100" y="70" width="770" height="30" as="geometry"/>
                </mxCell>
                <mxCell id="UuW12oKez12iBIwaAhRY-139" value="&lt;font style=&quot;font-size: 24px;&quot;&gt;Plateforme de partage de recettes&lt;/font&gt;" style="text;html=1;align=center;verticalAlign=middle;whiteSpace=wrap;rounded=0;" vertex="1" parent="1">
                    <mxGeometry x="50" y="70" width="760" height="30" as="geometry"/>
                </mxCell>
                <mxCell id="UuW12oKez12iBIwaAhRY-140" value="Visiteur" style="shape=umlActor;verticalLabelPosition=bottom;verticalAlign=top;html=1;outlineConnect=0;" vertex="1" parent="1">
                    <mxGeometry x="20" y="190" width="30" height="60" as="geometry"/>
                </mxCell>
                <mxCell id="UuW12oKez12iBIwaAhRY-191" style="edgeStyle=none;html=1;exitX=1;exitY=0.3333333333333333;exitDx=0;exitDy=0;exitPerimeter=0;entryX=0;entryY=0.5;entryDx=0;entryDy=0;fontFamily=Helvetica;fontSize=12;fontColor=default;endArrow=none;endFill=0;" edge="1" parent="1" source="UuW12oKez12iBIwaAhRY-141" target="UuW12oKez12iBIwaAhRY-181">
                    <mxGeometry relative="1" as="geometry"/>
                </mxCell>
                <mxCell id="UuW12oKez12iBIwaAhRY-192" style="edgeStyle=none;html=1;exitX=1;exitY=0.3333333333333333;exitDx=0;exitDy=0;exitPerimeter=0;entryX=0;entryY=0.5;entryDx=0;entryDy=0;fontFamily=Helvetica;fontSize=12;fontColor=default;endArrow=none;endFill=0;" edge="1" parent="1" source="UuW12oKez12iBIwaAhRY-141" target="UuW12oKez12iBIwaAhRY-174">
                    <mxGeometry relative="1" as="geometry"/>
                </mxCell>
                <mxCell id="UuW12oKez12iBIwaAhRY-193" style="edgeStyle=none;html=1;exitX=1;exitY=0.3333333333333333;exitDx=0;exitDy=0;exitPerimeter=0;entryX=0;entryY=0.5;entryDx=0;entryDy=0;fontFamily=Helvetica;fontSize=12;fontColor=default;endArrow=none;endFill=0;" edge="1" parent="1" source="UuW12oKez12iBIwaAhRY-141" target="UuW12oKez12iBIwaAhRY-162">
                    <mxGeometry relative="1" as="geometry"/>
                </mxCell>
                <mxCell id="UuW12oKez12iBIwaAhRY-195" style="edgeStyle=none;html=1;exitX=1;exitY=0.3333333333333333;exitDx=0;exitDy=0;exitPerimeter=0;entryX=0;entryY=0.5;entryDx=0;entryDy=0;fontFamily=Helvetica;fontSize=12;fontColor=default;endArrow=none;endFill=0;" edge="1" parent="1" source="UuW12oKez12iBIwaAhRY-141" target="UuW12oKez12iBIwaAhRY-189">
                    <mxGeometry relative="1" as="geometry"/>
                </mxCell>
                <mxCell id="UuW12oKez12iBIwaAhRY-196" style="edgeStyle=none;html=1;exitX=1;exitY=0.3333333333333333;exitDx=0;exitDy=0;exitPerimeter=0;entryX=0;entryY=0.5;entryDx=0;entryDy=0;fontFamily=Helvetica;fontSize=12;fontColor=default;endArrow=none;endFill=0;" edge="1" parent="1" source="UuW12oKez12iBIwaAhRY-141" target="UuW12oKez12iBIwaAhRY-144">
                    <mxGeometry relative="1" as="geometry"/>
                </mxCell>
                <mxCell id="UuW12oKez12iBIwaAhRY-141" value="ADMIN" style="shape=umlActor;verticalLabelPosition=bottom;verticalAlign=top;html=1;outlineConnect=0;" vertex="1" parent="1">
                    <mxGeometry x="20" y="660" width="30" height="60" as="geometry"/>
                </mxCell>
                <mxCell id="UuW12oKez12iBIwaAhRY-143" value="" style="group" vertex="1" connectable="0" parent="1">
                    <mxGeometry x="140" y="980" width="350" height="204.70823529411763" as="geometry"/>
                </mxCell>
                <mxCell id="UuW12oKez12iBIwaAhRY-159" value="" style="group" vertex="1" connectable="0" parent="UuW12oKez12iBIwaAhRY-143">
                    <mxGeometry x="-10" y="-56.11764705882353" width="350" height="175.82588235294116" as="geometry"/>
                </mxCell>
                <mxCell id="UuW12oKez12iBIwaAhRY-144" value="&lt;font style=&quot;color: light-dark(rgb(0, 0, 0), rgb(0, 0, 0));&quot;&gt;Gérer les utilisateurs&lt;/font&gt;" style="ellipse;whiteSpace=wrap;html=1;fillColor=light-dark(#FFFFFF,#F2F261);" vertex="1" parent="UuW12oKez12iBIwaAhRY-159">
                    <mxGeometry y="57" width="140" height="44.705882352941174" as="geometry"/>
                </mxCell>
                <mxCell id="UuW12oKez12iBIwaAhRY-145" style="edgeStyle=none;html=1;entryX=1;entryY=0.5;entryDx=0;entryDy=0;endArrow=block;endFill=0;exitX=0;exitY=0.5;exitDx=0;exitDy=0;" edge="1" parent="UuW12oKez12iBIwaAhRY-159" source="UuW12oKez12iBIwaAhRY-146" target="UuW12oKez12iBIwaAhRY-144">
                    <mxGeometry relative="1" as="geometry"/>
                </mxCell>
                <mxCell id="UuW12oKez12iBIwaAhRY-146" value="&lt;font style=&quot;color: light-dark(rgb(0, 0, 0), rgb(0, 0, 0));&quot;&gt;Modifier&amp;nbsp;une catégorie&lt;/font&gt;" style="ellipse;whiteSpace=wrap;html=1;fillColor=light-dark(#FFFFFF,#F2F261);" vertex="1" parent="UuW12oKez12iBIwaAhRY-159">
                    <mxGeometry x="210" y="55.88235294117647" width="140" height="44.705882352941174" as="geometry"/>
                </mxCell>
                <mxCell id="UuW12oKez12iBIwaAhRY-147" style="edgeStyle=none;html=1;entryX=1;entryY=0.5;entryDx=0;entryDy=0;endArrow=block;endFill=0;exitX=0;exitY=0.5;exitDx=0;exitDy=0;" edge="1" parent="UuW12oKez12iBIwaAhRY-159" source="UuW12oKez12iBIwaAhRY-148" target="UuW12oKez12iBIwaAhRY-144">
                    <mxGeometry relative="1" as="geometry"/>
                </mxCell>
                <mxCell id="UuW12oKez12iBIwaAhRY-148" value="&lt;font style=&quot;color: light-dark(rgb(0, 0, 0), rgb(0, 0, 0));&quot;&gt;Ajouter une nouvelle catégorie&lt;/font&gt;" style="ellipse;whiteSpace=wrap;html=1;fillColor=light-dark(#FFFFFF,#F2F261);" vertex="1" parent="UuW12oKez12iBIwaAhRY-159">
                    <mxGeometry x="210" width="140" height="44.705882352941174" as="geometry"/>
                </mxCell>
                <mxCell id="UuW12oKez12iBIwaAhRY-153" value="&lt;font style=&quot;color: light-dark(rgb(0, 0, 0), rgb(0, 0, 0));&quot;&gt;supprimer une catégorie&lt;/font&gt;" style="ellipse;whiteSpace=wrap;html=1;fillColor=light-dark(#FFFFFF,#F2F261);" vertex="1" parent="UuW12oKez12iBIwaAhRY-159">
                    <mxGeometry x="210" y="114" width="140" height="44.705882352941174" as="geometry"/>
                </mxCell>
                <mxCell id="UuW12oKez12iBIwaAhRY-158" style="edgeStyle=none;html=1;entryX=1;entryY=0.5;entryDx=0;entryDy=0;endArrow=block;endFill=0;exitX=0;exitY=0.5;exitDx=0;exitDy=0;" edge="1" parent="UuW12oKez12iBIwaAhRY-159" source="UuW12oKez12iBIwaAhRY-153" target="UuW12oKez12iBIwaAhRY-144">
                    <mxGeometry relative="1" as="geometry">
                        <mxPoint x="210" y="118.47058823529413" as="sourcePoint"/>
                        <mxPoint x="150" y="90.52941176470588" as="targetPoint"/>
                    </mxGeometry>
                </mxCell>
                <mxCell id="UuW12oKez12iBIwaAhRY-189" value="&lt;font style=&quot;color: light-dark(rgb(0, 0, 0), rgb(0, 0, 0));&quot;&gt; Consulter les statistiques&lt;/font&gt;" style="ellipse;whiteSpace=wrap;html=1;fillColor=light-dark(#FFFFFF,#F2F261);" vertex="1" parent="UuW12oKez12iBIwaAhRY-143">
                    <mxGeometry x="-10" y="160.00235294117647" width="140" height="44.705882352941174" as="geometry"/>
                </mxCell>
                <mxCell id="UuW12oKez12iBIwaAhRY-172" value="" style="group" vertex="1" connectable="0" parent="1">
                    <mxGeometry x="120" y="650" width="340" height="170" as="geometry"/>
                </mxCell>
                <mxCell id="UuW12oKez12iBIwaAhRY-173" value="" style="group" vertex="1" connectable="0" parent="UuW12oKez12iBIwaAhRY-172">
                    <mxGeometry y="-25" width="350" height="142" as="geometry"/>
                </mxCell>
                <mxCell id="UuW12oKez12iBIwaAhRY-174" value="&lt;font style=&quot;color: light-dark(rgb(0, 0, 0), rgb(0, 0, 0));&quot;&gt;Gérer les recettes&lt;/font&gt;" style="ellipse;whiteSpace=wrap;html=1;fillColor=light-dark(#FFFFFF,#F2F261);" vertex="1" parent="UuW12oKez12iBIwaAhRY-173">
                    <mxGeometry y="51" width="140" height="40" as="geometry"/>
                </mxCell>
                <mxCell id="UuW12oKez12iBIwaAhRY-175" style="edgeStyle=none;html=1;entryX=1;entryY=0.5;entryDx=0;entryDy=0;endArrow=block;endFill=0;exitX=0;exitY=0.5;exitDx=0;exitDy=0;" edge="1" parent="UuW12oKez12iBIwaAhRY-173" source="UuW12oKez12iBIwaAhRY-176" target="UuW12oKez12iBIwaAhRY-174">
                    <mxGeometry relative="1" as="geometry"/>
                </mxCell>
                <mxCell id="UuW12oKez12iBIwaAhRY-176" value="&lt;font style=&quot;color: light-dark(rgb(0, 0, 0), rgb(0, 0, 0));&quot;&gt;supprimer une recette&lt;/font&gt;" style="ellipse;whiteSpace=wrap;html=1;fillColor=light-dark(#FFFFFF,#F2F261);" vertex="1" parent="UuW12oKez12iBIwaAhRY-173">
                    <mxGeometry x="210" y="76" width="140" height="40" as="geometry"/>
                </mxCell>
                <mxCell id="UuW12oKez12iBIwaAhRY-177" style="edgeStyle=none;html=1;entryX=1;entryY=0.5;entryDx=0;entryDy=0;endArrow=block;endFill=0;exitX=0;exitY=0.5;exitDx=0;exitDy=0;" edge="1" parent="UuW12oKez12iBIwaAhRY-173" source="UuW12oKez12iBIwaAhRY-178" target="UuW12oKez12iBIwaAhRY-174">
                    <mxGeometry relative="1" as="geometry"/>
                </mxCell>
                <mxCell id="UuW12oKez12iBIwaAhRY-178" value="&lt;font style=&quot;color: light-dark(rgb(0, 0, 0), rgb(0, 0, 0));&quot;&gt;Consulter la liste des recettes&lt;/font&gt;" style="ellipse;whiteSpace=wrap;html=1;fillColor=light-dark(#FFFFFF,#F2F261);" vertex="1" parent="UuW12oKez12iBIwaAhRY-173">
                    <mxGeometry x="210" y="26" width="140" height="40" as="geometry"/>
                </mxCell>
                <mxCell id="UuW12oKez12iBIwaAhRY-179" value="" style="group" vertex="1" connectable="0" parent="1">
                    <mxGeometry x="120" y="465" width="340" height="170" as="geometry"/>
                </mxCell>
                <mxCell id="UuW12oKez12iBIwaAhRY-180" value="" style="group" vertex="1" connectable="0" parent="UuW12oKez12iBIwaAhRY-179">
                    <mxGeometry y="-1" width="350" height="142" as="geometry"/>
                </mxCell>
                <mxCell id="UuW12oKez12iBIwaAhRY-181" value="&lt;font style=&quot;color: light-dark(rgb(0, 0, 0), rgb(0, 0, 0));&quot;&gt;Gérer les utilisateurs&lt;/font&gt;" style="ellipse;whiteSpace=wrap;html=1;fillColor=light-dark(#FFFFFF,#F2F261);" vertex="1" parent="UuW12oKez12iBIwaAhRY-180">
                    <mxGeometry y="51" width="140" height="40" as="geometry"/>
                </mxCell>
                <mxCell id="UuW12oKez12iBIwaAhRY-182" style="edgeStyle=none;html=1;entryX=1;entryY=0.5;entryDx=0;entryDy=0;endArrow=block;endFill=0;exitX=0;exitY=0.5;exitDx=0;exitDy=0;" edge="1" parent="UuW12oKez12iBIwaAhRY-180" source="UuW12oKez12iBIwaAhRY-183" target="UuW12oKez12iBIwaAhRY-181">
                    <mxGeometry relative="1" as="geometry"/>
                </mxCell>
                <mxCell id="UuW12oKez12iBIwaAhRY-183" value="&lt;font style=&quot;color: light-dark(rgb(0, 0, 0), rgb(0, 0, 0));&quot;&gt;Modifier le statut d&#39;un utilisateur&lt;/font&gt;" style="ellipse;whiteSpace=wrap;html=1;fillColor=light-dark(#FFFFFF,#F2F261);" vertex="1" parent="UuW12oKez12iBIwaAhRY-180">
                    <mxGeometry x="210" y="50" width="140" height="40" as="geometry"/>
                </mxCell>
                <mxCell id="UuW12oKez12iBIwaAhRY-184" style="edgeStyle=none;html=1;entryX=1;entryY=0.5;entryDx=0;entryDy=0;endArrow=block;endFill=0;exitX=0;exitY=0.5;exitDx=0;exitDy=0;" edge="1" parent="UuW12oKez12iBIwaAhRY-180" source="UuW12oKez12iBIwaAhRY-185" target="UuW12oKez12iBIwaAhRY-181">
                    <mxGeometry relative="1" as="geometry"/>
                </mxCell>
                <mxCell id="UuW12oKez12iBIwaAhRY-185" value="&lt;font style=&quot;color: light-dark(rgb(0, 0, 0), rgb(0, 0, 0));&quot;&gt;Consulter la liste des utilisateurs&lt;/font&gt;" style="ellipse;whiteSpace=wrap;html=1;fillColor=light-dark(#FFFFFF,#F2F261);" vertex="1" parent="UuW12oKez12iBIwaAhRY-180">
                    <mxGeometry x="210" width="140" height="40" as="geometry"/>
                </mxCell>
                <mxCell id="UuW12oKez12iBIwaAhRY-186" value="&lt;font style=&quot;color: light-dark(rgb(0, 0, 0), rgb(0, 0, 0));&quot;&gt;supprimer un utilisateur&lt;/font&gt;" style="ellipse;whiteSpace=wrap;html=1;fillColor=light-dark(#FFFFFF,#F2F261);" vertex="1" parent="UuW12oKez12iBIwaAhRY-180">
                    <mxGeometry x="210" y="102" width="140" height="40" as="geometry"/>
                </mxCell>
                <mxCell id="UuW12oKez12iBIwaAhRY-187" style="edgeStyle=none;html=1;entryX=1;entryY=0.5;entryDx=0;entryDy=0;endArrow=block;endFill=0;exitX=0;exitY=0.5;exitDx=0;exitDy=0;" edge="1" parent="UuW12oKez12iBIwaAhRY-180" source="UuW12oKez12iBIwaAhRY-186" target="UuW12oKez12iBIwaAhRY-181">
                    <mxGeometry relative="1" as="geometry">
                        <mxPoint x="210" y="106" as="sourcePoint"/>
                        <mxPoint x="150" y="81" as="targetPoint"/>
                    </mxGeometry>
                </mxCell>
                <mxCell id="UuW12oKez12iBIwaAhRY-161" value="" style="group" vertex="1" connectable="0" parent="1">
                    <mxGeometry x="120" y="774" width="350" height="142" as="geometry"/>
                </mxCell>
                <mxCell id="UuW12oKez12iBIwaAhRY-162" value="&lt;font style=&quot;color: light-dark(rgb(0, 0, 0), rgb(0, 0, 0));&quot;&gt;Gérer les commentaires&lt;/font&gt;" style="ellipse;whiteSpace=wrap;html=1;fillColor=light-dark(#FFFFFF,#F2F261);" vertex="1" parent="UuW12oKez12iBIwaAhRY-161">
                    <mxGeometry y="51" width="140" height="40" as="geometry"/>
                </mxCell>
                <mxCell id="UuW12oKez12iBIwaAhRY-163" style="edgeStyle=none;html=1;entryX=1;entryY=0.5;entryDx=0;entryDy=0;endArrow=block;endFill=0;exitX=0;exitY=0.5;exitDx=0;exitDy=0;" edge="1" parent="UuW12oKez12iBIwaAhRY-161" source="UuW12oKez12iBIwaAhRY-164" target="UuW12oKez12iBIwaAhRY-162">
                    <mxGeometry relative="1" as="geometry"/>
                </mxCell>
                <mxCell id="UuW12oKez12iBIwaAhRY-164" value="&lt;font style=&quot;color: light-dark(rgb(0, 0, 0), rgb(0, 0, 0));&quot;&gt;Supprimer des commentaires&amp;nbsp;&lt;/font&gt;" style="ellipse;whiteSpace=wrap;html=1;fillColor=light-dark(#FFFFFF,#F2F261);" vertex="1" parent="UuW12oKez12iBIwaAhRY-161">
                    <mxGeometry x="210" y="76" width="140" height="40" as="geometry"/>
                </mxCell>
                <mxCell id="UuW12oKez12iBIwaAhRY-165" style="edgeStyle=none;html=1;entryX=1;entryY=0.5;entryDx=0;entryDy=0;endArrow=block;endFill=0;exitX=0;exitY=0.5;exitDx=0;exitDy=0;" edge="1" parent="UuW12oKez12iBIwaAhRY-161" source="UuW12oKez12iBIwaAhRY-166" target="UuW12oKez12iBIwaAhRY-162">
                    <mxGeometry relative="1" as="geometry"/>
                </mxCell>
                <mxCell id="UuW12oKez12iBIwaAhRY-166" value="&lt;font style=&quot;color: light-dark(rgb(0, 0, 0), rgb(0, 0, 0));&quot;&gt;Consulter la liste des commentaires&lt;/font&gt;" style="ellipse;whiteSpace=wrap;html=1;fillColor=light-dark(#FFFFFF,#F2F261);" vertex="1" parent="UuW12oKez12iBIwaAhRY-161">
                    <mxGeometry x="210" y="26" width="140" height="40" as="geometry"/>
                </mxCell>
                <mxCell id="UuW12oKez12iBIwaAhRY-197" value="&lt;font style=&quot;color: light-dark(rgb(0, 0, 0), rgb(0, 0, 0));&quot;&gt;s&#39;authentifier&lt;/font&gt;" style="ellipse;whiteSpace=wrap;html=1;fillColor=light-dark(#FFFFFF,#F2F261);" vertex="1" parent="1">
                    <mxGeometry x="570" y="650" width="140" height="40" as="geometry"/>
                </mxCell>
                <mxCell id="UuW12oKez12iBIwaAhRY-198" value="&amp;lt;&amp;lt;include&amp;gt;&amp;gt;" style="html=1;verticalAlign=bottom;labelBackgroundColor=none;endArrow=open;endFill=0;dashed=1;edgeStyle=orthogonalEdgeStyle;entryX=0.5;entryY=0;entryDx=0;entryDy=0;exitX=0.5;exitY=1;exitDx=0;exitDy=0;" edge="1" parent="1" source="UuW12oKez12iBIwaAhRY-181" target="UuW12oKez12iBIwaAhRY-197">
                    <mxGeometry width="160" relative="1" as="geometry">
                        <mxPoint x="260" y="530" as="sourcePoint"/>
                        <mxPoint x="790" y="410.76" as="targetPoint"/>
                        <Array as="points">
                            <mxPoint x="190" y="630"/>
                            <mxPoint x="640" y="630"/>
                        </Array>
                    </mxGeometry>
                </mxCell>
                <mxCell id="UuW12oKez12iBIwaAhRY-199" value="&amp;lt;&amp;lt;include&amp;gt;&amp;gt;" style="html=1;verticalAlign=bottom;labelBackgroundColor=none;endArrow=open;endFill=0;dashed=1;edgeStyle=orthogonalEdgeStyle;entryX=0.5;entryY=1;entryDx=0;entryDy=0;exitX=0.5;exitY=1;exitDx=0;exitDy=0;" edge="1" parent="1" source="UuW12oKez12iBIwaAhRY-174" target="UuW12oKez12iBIwaAhRY-197">
                    <mxGeometry width="160" relative="1" as="geometry">
                        <mxPoint x="200" y="565" as="sourcePoint"/>
                        <mxPoint x="650" y="660" as="targetPoint"/>
                        <Array as="points">
                            <mxPoint x="190" y="760"/>
                            <mxPoint x="640" y="760"/>
                        </Array>
                    </mxGeometry>
                </mxCell>
                <mxCell id="UuW12oKez12iBIwaAhRY-200" value="&amp;lt;&amp;lt;include&amp;gt;&amp;gt;" style="html=1;verticalAlign=bottom;labelBackgroundColor=none;endArrow=open;endFill=0;dashed=1;edgeStyle=orthogonalEdgeStyle;entryX=1;entryY=1;entryDx=0;entryDy=0;exitX=0.608;exitY=0.017;exitDx=0;exitDy=0;exitPerimeter=0;" edge="1" parent="1" target="UuW12oKez12iBIwaAhRY-197">
                    <mxGeometry width="160" relative="1" as="geometry">
                        <mxPoint x="205.11999999999995" y="836.6800000000001" as="sourcePoint"/>
                        <mxPoint x="668.6999999999999" y="700.04" as="targetPoint"/>
                        <Array as="points">
                            <mxPoint x="205" y="812"/>
                            <mxPoint x="689" y="812"/>
                        </Array>
                    </mxGeometry>
                </mxCell>
                <mxCell id="UuW12oKez12iBIwaAhRY-201" value="&amp;lt;&amp;lt;include&amp;gt;&amp;gt;" style="html=1;verticalAlign=bottom;labelBackgroundColor=none;endArrow=open;endFill=0;dashed=1;edgeStyle=orthogonalEdgeStyle;entryX=0.679;entryY=0.975;entryDx=0;entryDy=0;exitX=0.5;exitY=0;exitDx=0;exitDy=0;entryPerimeter=0;" edge="1" parent="1" source="UuW12oKez12iBIwaAhRY-144" target="UuW12oKez12iBIwaAhRY-197">
                    <mxGeometry width="160" relative="1" as="geometry">
                        <mxPoint x="210" y="736" as="sourcePoint"/>
                        <mxPoint x="660" y="710" as="targetPoint"/>
                        <Array as="points">
                            <mxPoint x="200" y="910"/>
                            <mxPoint x="665" y="910"/>
                        </Array>
                    </mxGeometry>
                </mxCell>
                <mxCell id="UuW12oKez12iBIwaAhRY-202" value="&amp;lt;&amp;lt;include&amp;gt;&amp;gt;" style="html=1;verticalAlign=bottom;labelBackgroundColor=none;endArrow=open;endFill=0;dashed=1;edgeStyle=orthogonalEdgeStyle;entryX=0.284;entryY=0.895;entryDx=0;entryDy=0;exitX=1;exitY=0.5;exitDx=0;exitDy=0;entryPerimeter=0;" edge="1" parent="1" source="UuW12oKez12iBIwaAhRY-189" target="UuW12oKez12iBIwaAhRY-197">
                    <mxGeometry width="160" relative="1" as="geometry">
                        <mxPoint x="250" y="1184.685294117647" as="sourcePoint"/>
                        <mxPoint x="596.6200000000001" y="711.29" as="targetPoint"/>
                        <Array as="points">
                            <mxPoint x="610" y="1162"/>
                        </Array>
                    </mxGeometry>
                </mxCell>
            </root>
        </mxGraphModel>
    </diagram>
</mxfile>